# xmcd CD database file
#
# Track frame offsets:
#	150
#	14908
#	30940
#	44385
#	58225
#	71705
#	85788
#	100370
#	114838
#	128423
#	142133
#	155703
#	170213
#	184410
#	199320
#	214033
#	228555
#	241660
#	255450
#	268435
#
# Disc length: 3769 seconds
#
# Revision: 10
# Processed by: cddbd v1.5.1PL0 Copyright (c) Steve Scherf et al.
# Submitted via: CDex 1.51
#
DISCID=2e0eb714
DTITLE=Barbecue Bob - Chocolate To The Bone
DYEAR=1992
DGENRE=Blues
TTITLE0=Motherless Chile Blues
TTITLE1=Spider And The Fly
TTITLE2=Yo Yo Blues
TTITLE3=Mississippi Heavy Water Blues
TTITLE4=California Blues
TTITLE5=She's Coming Back Some Cold Rainy Day
TTITLE6=Barbecue Blues
TTITLE7=When The Saints Go Marching In
TTITLE8=Ease It To Me Blues
TTITLE9=Poor Boys A Long Ways From Home
TTITLE10=Diddle-Da-Diddle
TTITLE11=Going Up The Country
TTITLE12=Atlanta Moan
TTITLE13=Good Time Rounder
TTITLE14=It's Just Too Bad
TTITLE15=Twistin' Your Stuff
TTITLE16=Chocolate To The Bone
TTITLE17=Black Skunk Blues
TTITLE18=Jacksonville Blues
TTITLE19=She Shook Her Gin
EXTD=1992, Yazoo, a division of heanachie.   Yazoo 2005 YEAR: 1992
EXTT0=
EXTT1=
EXTT2=
EXTT3=
EXTT4=
EXTT5=
EXTT6=
EXTT7=
EXTT8=
EXTT9=
EXTT10=
EXTT11=
EXTT12=
EXTT13=
EXTT14=
EXTT15=
EXTT16=
EXTT17=
EXTT18=
EXTT19=
PLAYORDER=
